inDegrees=no
num_controls=7
num_derivatives=13
num_iterations=33
num_multipliers=7
num_parameters=0
num_slacks=7
num_states=26
objective=0.426596
objective_accelerations=0.058391
objective_balance=0.001148
objective_effort=0.015578
objective_height=0.345453
objective_ligament=0.006026
solver_duration=489.487579
status=Solve_Succeeded
success=true
DataType=double
version=3
OpenSimVersion=4.5
endheader
time	/jointset/ground_pelvis/pelvis_tilt/value	/jointset/ground_pelvis/pelvis_tx/value	/jointset/ground_pelvis/pelvis_ty/value	/jointset/hip_l/hip_flexion_l/value	/jointset/hip_l/hip_adduction_l/value	/jointset/hip_l/hip_rotation_l/value	/jointset/back/lumbar_extension/value	/jointset/patellofemoral_l/patellar_flexion_l/value	/jointset/knee_l/knee_flexion_l/value	/jointset/knee_l/knee_adduction_l/value	/jointset/knee_l/knee_rotation_l/value	/jointset/ankle_l/ankle_angle_l/value	/jointset/subtalar_l/subtalar_angle_l/value	/jointset/ground_pelvis/pelvis_tilt/speed	/jointset/ground_pelvis/pelvis_tx/speed	/jointset/ground_pelvis/pelvis_ty/speed	/jointset/hip_l/hip_flexion_l/speed	/jointset/hip_l/hip_adduction_l/speed	/jointset/hip_l/hip_rotation_l/speed	/jointset/back/lumbar_extension/speed	/jointset/patellofemoral_l/patellar_flexion_l/speed	/jointset/knee_l/knee_flexion_l/speed	/jointset/knee_l/knee_adduction_l/speed	/jointset/knee_l/knee_rotation_l/speed	/jointset/ankle_l/ankle_angle_l/speed	/jointset/subtalar_l/subtalar_angle_l/speed	/forceset/tau_hip_flexion_l	/forceset/tau_hip_adduction_l	/forceset/tau_hip_rotation_l	/forceset/tau_knee_flexion_l	/forceset/tau_ankle_angle_l	/forceset/tau_subtalar_angle_l	/forceset/tau_lumbar_extension	lambda_cid13_p0	lambda_cid13_p1	lambda_cid13_p2	lambda_cid13_p3	lambda_cid13_p4	lambda_cid13_p5	lambda_cid14_p0	/jointset/ground_pelvis/pelvis_tilt/accel	/jointset/ground_pelvis/pelvis_tx/accel	/jointset/ground_pelvis/pelvis_ty/accel	/jointset/hip_l/hip_flexion_l/accel	/jointset/hip_l/hip_adduction_l/accel	/jointset/hip_l/hip_rotation_l/accel	/jointset/back/lumbar_extension/accel	/jointset/patellofemoral_l/patellar_flexion_l/accel	/jointset/knee_l/knee_flexion_l/accel	/jointset/knee_l/knee_adduction_l/accel	/jointset/knee_l/knee_rotation_l/accel	/jointset/ankle_l/ankle_angle_l/accel	/jointset/subtalar_l/subtalar_angle_l/accel	gamma_cid13_p0	gamma_cid13_p1	gamma_cid13_p2	gamma_cid13_p3	gamma_cid13_p4	gamma_cid13_p5	gamma_cid14_p0
0	0.05050994688182332	0.1069034210931642	0.9033094661136147	0.1266922784136757	-0.3664194590077076	-0.2192218851760582	-0.2144969558742783	0.2051545070141792	0.2051545070141877	-0.1674170273107203	-0.1529717624367603	0.09024313228550125	0.08287778225452351	0	0	0	0	0	0	0	0	0	0	0	0	0	0.1125196983600719	-0.03093185863975323	-0.007872102590952949	-0.2446776775657258	0.1887348876794285	-0.1067706860286475	-0.0463735456634233	28.67020817515851	43.06550560566238	-9.105706440150598	-19.04705386319344	-437.4131740055423	-27.79661124707054	-25.94734470274416	-3.229711646649984	-1.058863052288693	-0.8888837927442086	11.55810309840238	-0.2977686201556066	3.245998242540636	-3.53434184448905	11.15309503098464	11.15309503098467	2.072619787783669	-1.095336661418412	3.76368024369371	0.7791882107402456	5.121450586929376e-09	5.364225452265631e-07	1.430057774987105e-08	1.747985426086864e-08	1.33263148643871e-07	1.249585863279045e-07	4.541166527370406e-08
0.01	0.05035293678641069	0.10685167713658	0.9032664160926563	0.1272548264152496	-0.3664320754879788	-0.2190537670832794	-0.2146786536866507	0.2056951350213997	0.2056951350214432	-0.1673135137273425	-0.1530137114368056	0.0904261053387002	0.08291755026386168	-0.03162525160042884	-0.01025721089236588	-0.008577265407282642	0.1121632117729475	-0.002386133111071974	0.03337126256623065	-0.03613840289393789	0.107285057116019	0.1072850571160171	0.02076413392758556	-0.008249300592979595	0.03630086769684856	0.008017689939921049	0.1152076246129444	-0.03964320056134866	-0.00853073445536858	-0.2507771969800018	0.1949390699231248	-0.1004618035304689	-0.04787454999481556	30.95870139065169	40.10980423599287	-8.845736800173746	-21.05486622599764	-439.1176280721647	-34.67677804423828	-25.94779693167847	-3.162424817356785	-0.9954095485006403	-0.8372104444216516	10.99346538660692	-0.1885507007705865	3.344852824129648	-3.623415574837423	10.39012032006929	10.39012032006902	2.087616998100404	-0.6686626758496268	3.519244958882873	0.8225862905241783	-1.31579384813192e-08	8.190498077228641e-07	-7.898026841487687e-08	7.705605220841839e-08	-1.339682524460588e-07	2.542530952036668e-07	9.543778427509708e-08
0.02	0.0498729755948725	0.1067001091829139	0.903138580911685	0.1289286135685243	-0.3664644563081966	-0.2185595038527266	-0.2152157007405572	0.2072833954534259	0.2072833954534286	-0.1670004974440165	-0.1531339406262702	0.09096327805412444	0.08303940055358081	-0.06459021922552106	-0.01996479941636952	-0.01695703200259433	0.222247830340566	-0.003952867989623654	0.06522902755108236	-0.07106984830751839	0.2095264849583773	0.2095264849583738	0.04190053996933941	-0.01565603789042496	0.07083993244178381	0.01641645607608052	0.117895550865653	-0.04835454248305144	-0.009189366319873965	-0.2568767163944923	0.2011432521666943	-0.09415292103244371	-0.04937555432619796	33.29579492620201	37.16148296884901	-8.605096625650372	-23.1235182312489	-439.9429072843136	-41.36823694465831	-25.94866363118596	-3.497654851582598	-0.9489385786164019	-0.8493840303500144	11.14238445733668	-0.1338889736515477	2.943298726264842	-3.292950348417579	10.14436917625246	10.14436917625254	2.14707421061736	-0.9268240023115749	3.411319653310836	0.8554034499878663	-3.143732754956779e-08	1.101677070219165e-06	-1.722611145796248e-07	1.366322501559681e-07	-4.011996535359886e-07	3.835476040794291e-07	1.454639032764901e-07
0.03	0.04906088422807976	0.1064535842088724	0.9029274496853538	0.1316921576460625	-0.3665103264554167	-0.2177543726084553	-0.2160944311563465	0.2098749966953563	0.2098749966953597	-0.1664767645178392	-0.1533270669067002	0.09183910411929633	0.08324572345129885	-0.09757621574255222	-0.02930930053891585	-0.02527617644603489	0.329941500888973	-0.005283061360479996	0.09574044253970918	-0.1043707124098313	0.3084679345591465	0.3084679345591476	0.06260686054169957	-0.02290314656647567	0.1042110636707804	0.02475108039822294	0.1124754943483872	-0.04350349913181147	-0.00794699959300481	-0.2497007175908152	0.1917769508725867	-0.09498496678099548	-0.04538544929775791	30.26432727525526	37.79420288826934	-8.409642176212746	-21.13518741713428	-439.3527828977104	-39.02638942269021	-25.94933923149276	-3.161288329326569	-0.9225440844256163	-0.8243054483474834	10.50493601447391	-0.1420033698506777	3.09660665954206	-3.302826075046533	9.720129226803358	9.720129226803909	1.996701413015896	-0.6137978919972477	3.282906087688374	0.8077829523969873	-4.132224543390051e-08	1.259153528508664e-06	-1.140050294121262e-07	1.545801511050494e-07	-5.054905925695468e-07	3.582607681911647e-07	1.586656600858369e-07
0.04	0.04792648964060861	0.1061145465825345	0.9026329018551879	0.1355170539612489	-0.3665713823065636	-0.2166458184594145	-0.2172970045399393	0.213446231708252	0.2134462317082566	-0.1657531102994336	-0.1535906929922501	0.09304522074275935	0.08353245079805249	-0.1290508633621368	-0.03846732987564003	-0.03364035276954266	0.4345182778726155	-0.006990008773259958	0.1259136085035665	-0.1358384418684717	0.4054532391524849	0.4054532391524898	0.08188479841288093	-0.02975599891233469	0.136898044099549	0.03249734588314335	0.1070554378309759	-0.03865245578057598	-0.006704632866084892	-0.2425247187871815	0.182410649578477	-0.09581701252955299	-0.04139534426943305	27.2765813190207	38.43655491751323	-8.235471618394566	-19.19517176135351	-437.9608002894341	-36.50075228074024	-25.949080782098	-3.19538507209323	-0.9116442214521383	-0.8583904063634535	10.51900574438387	-0.2092397820362694	2.875648921310954	-2.926323419683114	9.753140174766315	9.753140174766175	1.861397670381625	-0.8479727362732385	3.274489493265024	0.7377316825433928	-5.10340814381525e-08	1.414049557845446e-06	-5.262447143365336e-08	1.716697366521004e-07	-6.064219344473037e-07	3.297866880809613e-07	1.711081516953477e-07
0.05	0.0464832657560683	0.1056847433958171	0.9022544328266207	0.1403729028697813	-0.3666500775181949	-0.2152394982407597	-0.2188061066302444	0.2179752940191653	0.2179752940191917	-0.1648418582713447	-0.1539214735977016	0.09457349704408807	0.08389478282021921	-0.1594513754341735	-0.04747205505725496	-0.04205671697390554	0.5361147088846638	-0.00867604300569463	0.1551643563581903	-0.1658349528597043	0.4997394106050074	0.4997394106050025	0.1003117483559502	-0.03627433139169187	0.1684969545315877	0.03997781921850072	0.1036899953547265	-0.03678555742790365	-0.005831955714671914	-0.2392524456831187	0.1768954970521999	-0.09472395370060575	-0.03893537794806289	25.58113267642296	38.15166411158885	-8.067790357844384	-18.02481502450525	-437.5057097193655	-36.32812957105569	-25.94700692217446	-2.940994535816941	-0.8916643333281479	-0.8338711319621052	9.899440606850458	-0.1375386171997508	2.921929128095569	-3.014261438865546	9.173349444174947	9.173349444173585	1.82550137348599	-0.5349356061916362	3.0635923773403	0.7543029604028895	-5.158195105936078e-08	1.455505819946139e-06	-1.214572613730941e-07	1.841835039296382e-07	-6.897853776779829e-07	3.932113227767622e-07	1.872793603398972e-07
0.06	0.04474031469859438	0.105165537423921	0.9017916778151125	0.1462286118538687	-0.3667434837468251	-0.2135462422614371	-0.2206107631304667	0.2234286168073583	0.22342861680736	-0.1637479052003405	-0.1543136719483987	0.09640996256157605	0.08433213913601399	-0.1889962979485232	-0.05634788691140468	-0.05049754935777078	0.634490292986128	-0.009932212172230356	0.1833007606351236	-0.1949493238518175	0.590305334604714	0.5903053346047	0.1184250069876749	-0.04203954796802765	0.1985358873303004	0.04750220460869304	0.1003245528783089	-0.03491865907526166	-0.004959278563417494	-0.2359801725791482	0.171380344525875	-0.09363089487170349	-0.03647541162678124	23.92549691055099	37.87470448456076	-7.918397094619531	-16.89793665627165	-436.3246953888428	-35.98791972016966	-25.94173457859836	-3.024267160555767	-0.8858655559592535	-0.863284042263922	9.874836362267134	-0.1232667688564862	2.652780205772901	-2.749895419859269	9.009090684203104	9.009090684203079	1.798659408112742	-0.6973495556689533	2.962493966599606	0.7465140935103121	-5.174396946444091e-08	1.492185670794786e-06	-1.957727185932891e-07	1.965046051747754e-07	-7.724091199129956e-07	4.605053770433421e-07	2.036075675964483e-07
0.07000000000000001	0.04270461581118744	0.1045584927482629	0.9012438902140549	0.1530550573894604	-0.3668481252205049	-0.2115777417691008	-0.2226994379284412	0.2297722882848144	0.229772288284821	-0.1624753361889576	-0.1547616976544888	0.09854052950975561	0.08484455550095076	-0.2180851090754118	-0.06500874757516846	-0.0591026171850341	0.7304267417448547	-0.01100570824286839	0.2103077660899925	-0.2224421764492839	0.6780148805105959	0.67801488051058	0.1359026245686773	-0.04745107466741249	0.2274309680981598	0.05493538970572024	0.09642456267867461	-0.03310502556394185	-0.003984907549479577	-0.2329015960039416	0.1664883468975193	-0.09235633983198221	-0.03358067065907182	22.49909801718716	37.50448880037558	-7.783496735557997	-16.20697337598511	-435.0282854970297	-35.73413704319009	-25.93186651176785	-2.842417004199289	-0.8483117750091683	-0.865670585971925	9.397240171097398	-0.1010175116968648	2.711003681180533	-2.697461285574148	8.589733567895284	8.589733567894946	1.69461876270844	-0.4459420435152034	2.831075686568766	0.7346591181936781	-4.96370043054431e-08	1.31806231319879e-06	-2.212181509094809e-07	1.843434230381627e-07	-7.684041841380417e-07	4.438895758611991e-07	1.887280885044415e-07
